<mxfile host="app.diagrams.net" modified="2024-02-06T08:05:07.604Z" agent="Mozilla/5.0 (Windows NT 10.0; Win64; x64) AppleWebKit/537.36 (KHTML, like Gecko) Chrome/121.0.0.0 Safari/537.36" etag="pwYHY092BVB7PrIkT4IZ" version="23.1.1" type="device">
  <diagram name="Pagina-1" id="qGQLQ-8YB_Vdd02-_3eX">
    <mxGraphModel dx="1050" dy="557" grid="1" gridSize="10" guides="1" tooltips="1" connect="1" arrows="1" fold="1" page="1" pageScale="1" pageWidth="827" pageHeight="1169" math="0" shadow="0">
      <root>
        <mxCell id="0" />
        <mxCell id="1" parent="0" />
        <mxCell id="FFFfPocvCOAEHKNRRbK--7" style="edgeStyle=orthogonalEdgeStyle;rounded=0;orthogonalLoop=1;jettySize=auto;html=1;exitX=0.5;exitY=1;exitDx=0;exitDy=0;entryX=0.5;entryY=0;entryDx=0;entryDy=0;" parent="1" source="FFFfPocvCOAEHKNRRbK--1" target="FFFfPocvCOAEHKNRRbK--5" edge="1">
          <mxGeometry relative="1" as="geometry" />
        </mxCell>
        <mxCell id="FFFfPocvCOAEHKNRRbK--1" value="" style="rounded=1;whiteSpace=wrap;html=1;" parent="1" vertex="1">
          <mxGeometry x="30" y="20" width="120" height="60" as="geometry" />
        </mxCell>
        <mxCell id="FFFfPocvCOAEHKNRRbK--2" value="&lt;font style=&quot;font-size: 23px;&quot;&gt;Start&lt;/font&gt;" style="text;strokeColor=none;align=center;fillColor=none;html=1;verticalAlign=middle;whiteSpace=wrap;rounded=0;" parent="1" vertex="1">
          <mxGeometry x="57" y="37.5" width="66" height="25" as="geometry" />
        </mxCell>
        <mxCell id="FFFfPocvCOAEHKNRRbK--3" style="edgeStyle=orthogonalEdgeStyle;rounded=0;orthogonalLoop=1;jettySize=auto;html=1;exitX=0.5;exitY=1;exitDx=0;exitDy=0;" parent="1" source="FFFfPocvCOAEHKNRRbK--2" target="FFFfPocvCOAEHKNRRbK--2" edge="1">
          <mxGeometry relative="1" as="geometry" />
        </mxCell>
        <mxCell id="FFFfPocvCOAEHKNRRbK--12" style="edgeStyle=orthogonalEdgeStyle;rounded=0;orthogonalLoop=1;jettySize=auto;html=1;exitX=0.5;exitY=1;exitDx=0;exitDy=0;entryX=0.5;entryY=0;entryDx=0;entryDy=0;" parent="1" source="FFFfPocvCOAEHKNRRbK--4" target="FFFfPocvCOAEHKNRRbK--10" edge="1">
          <mxGeometry relative="1" as="geometry" />
        </mxCell>
        <mxCell id="FFFfPocvCOAEHKNRRbK--4" value="&lt;font style=&quot;font-size: 19px;&quot;&gt;herhalen &amp;amp; getal raden&lt;/font&gt;" style="rounded=0;whiteSpace=wrap;html=1;" parent="1" vertex="1">
          <mxGeometry x="30" y="190" width="120" height="60" as="geometry" />
        </mxCell>
        <mxCell id="FFFfPocvCOAEHKNRRbK--8" style="edgeStyle=orthogonalEdgeStyle;rounded=0;orthogonalLoop=1;jettySize=auto;html=1;exitX=0.5;exitY=1;exitDx=0;exitDy=0;" parent="1" source="FFFfPocvCOAEHKNRRbK--5" target="FFFfPocvCOAEHKNRRbK--4" edge="1">
          <mxGeometry relative="1" as="geometry" />
        </mxCell>
        <mxCell id="FFFfPocvCOAEHKNRRbK--5" value="&lt;font style=&quot;font-size: 19px;&quot;&gt;Random getal&amp;nbsp;&lt;/font&gt;" style="rounded=0;whiteSpace=wrap;html=1;" parent="1" vertex="1">
          <mxGeometry x="30" y="110" width="120" height="60" as="geometry" />
        </mxCell>
        <mxCell id="FFFfPocvCOAEHKNRRbK--15" style="edgeStyle=orthogonalEdgeStyle;rounded=0;orthogonalLoop=1;jettySize=auto;html=1;exitX=0.5;exitY=1;exitDx=0;exitDy=0;entryX=0.5;entryY=0;entryDx=0;entryDy=0;" parent="1" source="FFFfPocvCOAEHKNRRbK--10" target="FFFfPocvCOAEHKNRRbK--14" edge="1">
          <mxGeometry relative="1" as="geometry" />
        </mxCell>
        <mxCell id="FFFfPocvCOAEHKNRRbK--43" style="edgeStyle=orthogonalEdgeStyle;rounded=0;orthogonalLoop=1;jettySize=auto;html=1;exitX=1;exitY=0.5;exitDx=0;exitDy=0;entryX=0.5;entryY=1;entryDx=0;entryDy=0;" parent="1" source="FFFfPocvCOAEHKNRRbK--10" target="FFFfPocvCOAEHKNRRbK--42" edge="1">
          <mxGeometry relative="1" as="geometry" />
        </mxCell>
        <mxCell id="FFFfPocvCOAEHKNRRbK--10" value="&lt;font style=&quot;font-size: 22px;&quot;&gt;Ronde&lt;/font&gt;" style="rounded=0;whiteSpace=wrap;html=1;" parent="1" vertex="1">
          <mxGeometry x="30" y="290" width="120" height="60" as="geometry" />
        </mxCell>
        <mxCell id="FFFfPocvCOAEHKNRRbK--13" value="&lt;font style=&quot;font-size: 20px;&quot;&gt;20 X&lt;/font&gt;" style="text;html=1;align=center;verticalAlign=middle;resizable=0;points=[];autosize=1;strokeColor=none;fillColor=none;" parent="1" vertex="1">
          <mxGeometry x="150" y="253" width="60" height="40" as="geometry" />
        </mxCell>
        <mxCell id="FFFfPocvCOAEHKNRRbK--25" style="edgeStyle=orthogonalEdgeStyle;rounded=0;orthogonalLoop=1;jettySize=auto;html=1;entryX=0.5;entryY=0;entryDx=0;entryDy=0;" parent="1" source="FFFfPocvCOAEHKNRRbK--14" target="FFFfPocvCOAEHKNRRbK--23" edge="1">
          <mxGeometry relative="1" as="geometry">
            <Array as="points">
              <mxPoint x="90" y="500" />
              <mxPoint x="100" y="500" />
              <mxPoint x="100" y="550" />
              <mxPoint x="255" y="550" />
            </Array>
          </mxGeometry>
        </mxCell>
        <mxCell id="FFFfPocvCOAEHKNRRbK--26" style="edgeStyle=orthogonalEdgeStyle;rounded=0;orthogonalLoop=1;jettySize=auto;html=1;exitX=0.75;exitY=1;exitDx=0;exitDy=0;entryX=0.5;entryY=0;entryDx=0;entryDy=0;" parent="1" source="FFFfPocvCOAEHKNRRbK--14" target="FFFfPocvCOAEHKNRRbK--24" edge="1">
          <mxGeometry relative="1" as="geometry">
            <mxPoint x="260" y="520" as="targetPoint" />
          </mxGeometry>
        </mxCell>
        <mxCell id="FFFfPocvCOAEHKNRRbK--27" style="edgeStyle=orthogonalEdgeStyle;rounded=0;orthogonalLoop=1;jettySize=auto;html=1;exitX=0.25;exitY=1;exitDx=0;exitDy=0;entryX=0.25;entryY=0;entryDx=0;entryDy=0;" parent="1" source="FFFfPocvCOAEHKNRRbK--14" target="FFFfPocvCOAEHKNRRbK--22" edge="1">
          <mxGeometry relative="1" as="geometry" />
        </mxCell>
        <mxCell id="FFFfPocvCOAEHKNRRbK--14" value="&lt;font style=&quot;font-size: 19px;&quot;&gt;Raden tussen 1 tot 1000&lt;/font&gt;" style="rounded=0;whiteSpace=wrap;html=1;" parent="1" vertex="1">
          <mxGeometry x="30" y="370" width="120" height="60" as="geometry" />
        </mxCell>
        <mxCell id="FFFfPocvCOAEHKNRRbK--16" value="&lt;font style=&quot;font-size: 19px;&quot;&gt;10 x raden&lt;/font&gt;" style="text;html=1;align=center;verticalAlign=middle;resizable=0;points=[];autosize=1;strokeColor=none;fillColor=none;" parent="1" vertex="1">
          <mxGeometry x="200" y="360" width="110" height="40" as="geometry" />
        </mxCell>
        <mxCell id="FFFfPocvCOAEHKNRRbK--17" value="&lt;font style=&quot;font-size: 16px;&quot;&gt;1 X raden = +1 punt&lt;/font&gt;" style="text;html=1;align=center;verticalAlign=middle;resizable=0;points=[];autosize=1;strokeColor=none;fillColor=none;" parent="1" vertex="1">
          <mxGeometry x="200" y="395" width="160" height="30" as="geometry" />
        </mxCell>
        <mxCell id="FFFfPocvCOAEHKNRRbK--18" value="&lt;font style=&quot;font-size: 17px;&quot;&gt;MAX 20 PUNTEN SCOREN&lt;/font&gt;" style="text;html=1;align=center;verticalAlign=middle;resizable=0;points=[];autosize=1;strokeColor=none;fillColor=none;" parent="1" vertex="1">
          <mxGeometry x="380" y="350" width="240" height="30" as="geometry" />
        </mxCell>
        <mxCell id="FFFfPocvCOAEHKNRRbK--19" value="" style="endArrow=none;html=1;rounded=0;exitX=1;exitY=0.75;exitDx=0;exitDy=0;" parent="1" source="FFFfPocvCOAEHKNRRbK--14" edge="1">
          <mxGeometry width="50" height="50" relative="1" as="geometry">
            <mxPoint x="231" y="446" as="sourcePoint" />
            <mxPoint x="160" y="330" as="targetPoint" />
            <Array as="points">
              <mxPoint x="200" y="380" />
            </Array>
          </mxGeometry>
        </mxCell>
        <mxCell id="FFFfPocvCOAEHKNRRbK--45" style="edgeStyle=orthogonalEdgeStyle;rounded=0;orthogonalLoop=1;jettySize=auto;html=1;" parent="1" source="FFFfPocvCOAEHKNRRbK--22" edge="1">
          <mxGeometry relative="1" as="geometry">
            <mxPoint x="90" y="850" as="targetPoint" />
          </mxGeometry>
        </mxCell>
        <mxCell id="FFFfPocvCOAEHKNRRbK--22" value="&lt;font style=&quot;font-size: 21px;&quot;&gt;Geraden&lt;/font&gt;" style="rounded=0;whiteSpace=wrap;html=1;" parent="1" vertex="1">
          <mxGeometry x="40" y="570" width="120" height="60" as="geometry" />
        </mxCell>
        <mxCell id="FFFfPocvCOAEHKNRRbK--23" value="&lt;font style=&quot;font-size: 23px;&quot;&gt;Hoger&lt;/font&gt;" style="rounded=0;whiteSpace=wrap;html=1;" parent="1" vertex="1">
          <mxGeometry x="195" y="580" width="120" height="60" as="geometry" />
        </mxCell>
        <mxCell id="FFFfPocvCOAEHKNRRbK--37" style="edgeStyle=orthogonalEdgeStyle;rounded=0;orthogonalLoop=1;jettySize=auto;html=1;exitX=0.75;exitY=0;exitDx=0;exitDy=0;entryX=0;entryY=0.25;entryDx=0;entryDy=0;" parent="1" source="FFFfPocvCOAEHKNRRbK--24" target="FFFfPocvCOAEHKNRRbK--34" edge="1">
          <mxGeometry relative="1" as="geometry" />
        </mxCell>
        <mxCell id="FFFfPocvCOAEHKNRRbK--24" value="&lt;font style=&quot;font-size: 22px;&quot;&gt;Lager&lt;/font&gt;" style="rounded=0;whiteSpace=wrap;html=1;" parent="1" vertex="1">
          <mxGeometry x="354" y="570" width="120" height="60" as="geometry" />
        </mxCell>
        <mxCell id="FFFfPocvCOAEHKNRRbK--30" style="edgeStyle=orthogonalEdgeStyle;rounded=0;orthogonalLoop=1;jettySize=auto;html=1;exitX=0;exitY=0.5;exitDx=0;exitDy=0;entryX=0.75;entryY=1;entryDx=0;entryDy=0;" parent="1" source="FFFfPocvCOAEHKNRRbK--28" target="FFFfPocvCOAEHKNRRbK--23" edge="1">
          <mxGeometry relative="1" as="geometry" />
        </mxCell>
        <mxCell id="FFFfPocvCOAEHKNRRbK--33" value="" style="edgeStyle=orthogonalEdgeStyle;rounded=0;orthogonalLoop=1;jettySize=auto;html=1;" parent="1" source="FFFfPocvCOAEHKNRRbK--28" target="FFFfPocvCOAEHKNRRbK--31" edge="1">
          <mxGeometry relative="1" as="geometry" />
        </mxCell>
        <mxCell id="FFFfPocvCOAEHKNRRbK--28" value="&lt;font style=&quot;font-size: 16px;&quot;&gt;Verschil kleiner dan 50&lt;/font&gt;" style="rounded=0;whiteSpace=wrap;html=1;" parent="1" vertex="1">
          <mxGeometry x="280" y="680" width="120" height="60" as="geometry" />
        </mxCell>
        <mxCell id="FFFfPocvCOAEHKNRRbK--29" style="edgeStyle=orthogonalEdgeStyle;rounded=0;orthogonalLoop=1;jettySize=auto;html=1;entryX=0.633;entryY=1;entryDx=0;entryDy=0;entryPerimeter=0;" parent="1" source="FFFfPocvCOAEHKNRRbK--28" target="FFFfPocvCOAEHKNRRbK--24" edge="1">
          <mxGeometry relative="1" as="geometry" />
        </mxCell>
        <mxCell id="FFFfPocvCOAEHKNRRbK--31" value="&lt;font style=&quot;font-size: 16px;&quot;&gt;Je bent warm&lt;/font&gt;" style="shape=parallelogram;perimeter=parallelogramPerimeter;whiteSpace=wrap;html=1;fixedSize=1;" parent="1" vertex="1">
          <mxGeometry x="450" y="680" width="120" height="60" as="geometry" />
        </mxCell>
        <mxCell id="FFFfPocvCOAEHKNRRbK--36" value="" style="edgeStyle=orthogonalEdgeStyle;rounded=0;orthogonalLoop=1;jettySize=auto;html=1;" parent="1" source="FFFfPocvCOAEHKNRRbK--34" target="FFFfPocvCOAEHKNRRbK--35" edge="1">
          <mxGeometry relative="1" as="geometry" />
        </mxCell>
        <mxCell id="FFFfPocvCOAEHKNRRbK--38" style="edgeStyle=orthogonalEdgeStyle;rounded=0;orthogonalLoop=1;jettySize=auto;html=1;exitX=0.5;exitY=0;exitDx=0;exitDy=0;entryX=0.75;entryY=0;entryDx=0;entryDy=0;" parent="1" source="FFFfPocvCOAEHKNRRbK--34" target="FFFfPocvCOAEHKNRRbK--23" edge="1">
          <mxGeometry relative="1" as="geometry" />
        </mxCell>
        <mxCell id="FFFfPocvCOAEHKNRRbK--34" value="&lt;font style=&quot;font-size: 16px;&quot;&gt;Verschil kleiner dan 20&lt;/font&gt;" style="rounded=0;whiteSpace=wrap;html=1;" parent="1" vertex="1">
          <mxGeometry x="490" y="500" width="120" height="60" as="geometry" />
        </mxCell>
        <mxCell id="FFFfPocvCOAEHKNRRbK--35" value="&lt;font style=&quot;font-size: 16px;&quot;&gt;Je bent heel warm&lt;/font&gt;" style="shape=parallelogram;perimeter=parallelogramPerimeter;whiteSpace=wrap;html=1;fixedSize=1;" parent="1" vertex="1">
          <mxGeometry x="650" y="500" width="120" height="60" as="geometry" />
        </mxCell>
        <mxCell id="FFFfPocvCOAEHKNRRbK--39" value="&lt;font style=&quot;font-size: 15px;&quot;&gt;Na elke ronde toont de terminal de score&lt;/font&gt;" style="whiteSpace=wrap;html=1;" parent="1" vertex="1">
          <mxGeometry x="570" y="210" width="120" height="60" as="geometry" />
        </mxCell>
        <mxCell id="FFFfPocvCOAEHKNRRbK--47" style="edgeStyle=orthogonalEdgeStyle;rounded=0;orthogonalLoop=1;jettySize=auto;html=1;entryX=1;entryY=0.5;entryDx=0;entryDy=0;" parent="1" source="FFFfPocvCOAEHKNRRbK--42" target="FFFfPocvCOAEHKNRRbK--4" edge="1">
          <mxGeometry relative="1" as="geometry" />
        </mxCell>
        <mxCell id="FFFfPocvCOAEHKNRRbK--42" value="&lt;font style=&quot;font-size: 16px;&quot;&gt;Nog een getal raden?&lt;/font&gt;" style="shape=parallelogram;perimeter=parallelogramPerimeter;whiteSpace=wrap;html=1;fixedSize=1;" parent="1" vertex="1">
          <mxGeometry x="270" y="170" width="120" height="60" as="geometry" />
        </mxCell>
        <mxCell id="FFFfPocvCOAEHKNRRbK--44" value="&lt;font style=&quot;font-size: 18px;&quot;&gt;Tot &amp;lt;= 20&lt;/font&gt;" style="text;html=1;align=center;verticalAlign=middle;resizable=0;points=[];autosize=1;strokeColor=none;fillColor=none;" parent="1" vertex="1">
          <mxGeometry x="330" y="270" width="100" height="40" as="geometry" />
        </mxCell>
        <mxCell id="FFFfPocvCOAEHKNRRbK--46" value="&lt;font style=&quot;font-size: 17px;&quot;&gt;EINDE&amp;nbsp; &amp;amp;&lt;br&gt;EINDSCORE&lt;/font&gt;" style="whiteSpace=wrap;html=1;" parent="1" vertex="1">
          <mxGeometry x="40" y="850" width="120" height="60" as="geometry" />
        </mxCell>
        <mxCell id="NKrUQ3MPHT6tOqamYXUE-2" style="edgeStyle=orthogonalEdgeStyle;rounded=0;orthogonalLoop=1;jettySize=auto;html=1;entryX=1;entryY=1;entryDx=0;entryDy=0;" edge="1" parent="1" source="NKrUQ3MPHT6tOqamYXUE-1" target="FFFfPocvCOAEHKNRRbK--14">
          <mxGeometry relative="1" as="geometry" />
        </mxCell>
        <mxCell id="NKrUQ3MPHT6tOqamYXUE-3" style="edgeStyle=orthogonalEdgeStyle;rounded=0;orthogonalLoop=1;jettySize=auto;html=1;exitX=1;exitY=0.5;exitDx=0;exitDy=0;entryX=1;entryY=0.5;entryDx=0;entryDy=0;" edge="1" parent="1" source="NKrUQ3MPHT6tOqamYXUE-1" target="FFFfPocvCOAEHKNRRbK--1">
          <mxGeometry relative="1" as="geometry" />
        </mxCell>
        <mxCell id="NKrUQ3MPHT6tOqamYXUE-6" style="edgeStyle=orthogonalEdgeStyle;rounded=0;orthogonalLoop=1;jettySize=auto;html=1;exitX=0.25;exitY=0;exitDx=0;exitDy=0;entryX=0.84;entryY=1.01;entryDx=0;entryDy=0;entryPerimeter=0;" edge="1" parent="1" source="NKrUQ3MPHT6tOqamYXUE-1" target="FFFfPocvCOAEHKNRRbK--4">
          <mxGeometry relative="1" as="geometry">
            <mxPoint x="130" y="260" as="targetPoint" />
          </mxGeometry>
        </mxCell>
        <mxCell id="NKrUQ3MPHT6tOqamYXUE-1" value="&lt;font style=&quot;font-size: 20px;&quot;&gt;Fout&lt;/font&gt;" style="rounded=0;whiteSpace=wrap;html=1;" vertex="1" parent="1">
          <mxGeometry x="390" y="400" width="120" height="60" as="geometry" />
        </mxCell>
        <mxCell id="NKrUQ3MPHT6tOqamYXUE-4" style="edgeStyle=orthogonalEdgeStyle;rounded=0;orthogonalLoop=1;jettySize=auto;html=1;exitX=0.5;exitY=0;exitDx=0;exitDy=0;entryX=0.993;entryY=0.877;entryDx=0;entryDy=0;entryPerimeter=0;" edge="1" parent="1" source="NKrUQ3MPHT6tOqamYXUE-1" target="FFFfPocvCOAEHKNRRbK--4">
          <mxGeometry relative="1" as="geometry" />
        </mxCell>
      </root>
    </mxGraphModel>
  </diagram>
</mxfile>
